HIERARCHY
ROOT Hips
{
  OFFSET -43.3411 73.6987 0
  CHANNELS 6 Xposition Yposition Zposition Zrotation Xrotation Yrotation
  JOINT Bip01_Pelvis
  {
    OFFSET 0 0 0
    CHANNELS 6 Xposition Yposition Zposition Zrotation Xrotation Yrotation
    JOINT BN_Tail_01
    {
      OFFSET -18.6385 -9.591 -2.032e-005
      CHANNELS 6 Xposition Yposition Zposition Zrotation Xrotation Yrotation
      JOINT BN_Tail_02
      {
        OFFSET 20.9743 0 0
        CHANNELS 6 Xposition Yposition Zposition Zrotation Xrotation Yrotation
        JOINT BN_Tail_03
        {
          OFFSET 20.3015 0 0
          CHANNELS 6 Xposition Yposition Zposition Zrotation Xrotation Yrotation
          JOINT BN_Tail_04
          {
            OFFSET 21.6394 -9.91821e-005 0
            CHANNELS 6 Xposition Yposition Zposition Zrotation Xrotation Yrotation
            End Site
            {
              OFFSET 0 0 0
            }
          }
        }
      }
    }
    JOINT Bip01_Spine
    {
      OFFSET 22.1878 -0.659386 3.048e-005
      CHANNELS 6 Xposition Yposition Zposition Zrotation Xrotation Yrotation
      JOINT Bip01_R_Thigh
      {
        OFFSET -22.1873 0.677109 -17.1024
        CHANNELS 6 Xposition Yposition Zposition Zrotation Xrotation Yrotation
        JOINT Bip01_R_Calf
        {
          OFFSET 34.2647 0 0
          CHANNELS 6 Xposition Yposition Zposition Zrotation Xrotation Yrotation
          JOINT Bip01_R_HorseLink
          {
            OFFSET 20.4429 0 0
            CHANNELS 6 Xposition Yposition Zposition Zrotation Xrotation Yrotation
            JOINT Bip01_R_Foot
            {
              OFFSET 16.5673 0 0
              CHANNELS 6 Xposition Yposition Zposition Zrotation Xrotation Yrotation
              JOINT Bip01_R_Toe0
              {
                OFFSET 9.18784 6.94841 0
                CHANNELS 6 Xposition Yposition Zposition Zrotation Xrotation Yrotation
                JOINT Bip01_R_Toe0Nub
                {
                  OFFSET 1.01907 0 0
                  CHANNELS 6 Xposition Yposition Zposition Zrotation Xrotation Yrotation
                  End Site
                  {
                    OFFSET 0 0 0
                  }
                }
              }
            }
          }
        }
      }
      JOINT Bip01_L_Thigh
      {
        OFFSET -22.1873 0.67701 17.1024
        CHANNELS 6 Xposition Yposition Zposition Zrotation Xrotation Yrotation
        JOINT Bip01_L_Calf
        {
          OFFSET 34.2647 0 0
          CHANNELS 6 Xposition Yposition Zposition Zrotation Xrotation Yrotation
          JOINT Bip01_L_HorseLink
          {
            OFFSET 20.4429 0 0
            CHANNELS 6 Xposition Yposition Zposition Zrotation Xrotation Yrotation
            JOINT Bip01_L_Foot
            {
              OFFSET 16.5673 0 0
              CHANNELS 6 Xposition Yposition Zposition Zrotation Xrotation Yrotation
              JOINT Bip01_L_Toe0
              {
                OFFSET 9.18784 6.9484 1.14441e-005
                CHANNELS 6 Xposition Yposition Zposition Zrotation Xrotation Yrotation
                JOINT Bip01_L_Toe0Nub
                {
                  OFFSET 1.01907 0 0
                  CHANNELS 6 Xposition Yposition Zposition Zrotation Xrotation Yrotation
                  End Site
                  {
                    OFFSET 0 0 0
                  }
                }
              }
            }
          }
        }
      }
      JOINT Bip01_Spine1
      {
        OFFSET 39.3372 -0.0249863 0
        CHANNELS 6 Xposition Yposition Zposition Zrotation Xrotation Yrotation
        JOINT Bip01_Neck
        {
          OFFSET 34.2837 -15.5934 -4.318e-005
          CHANNELS 6 Xposition Yposition Zposition Zrotation Xrotation Yrotation
          JOINT Bip01_R_Clavicle
          {
            OFFSET -17.9452 -11.3131 -6.19287
            CHANNELS 6 Xposition Yposition Zposition Zrotation Xrotation Yrotation
            JOINT Bip01_R_UpperArm
            {
              OFFSET 17.4439 1.52588e-005 -2.28882e-005
              CHANNELS 6 Xposition Yposition Zposition Zrotation Xrotation Yrotation
              JOINT Bip01_R_Forearm
              {
                OFFSET 30.6251 1.14441e-005 0
                CHANNELS 6 Xposition Yposition Zposition Zrotation Xrotation Yrotation
                JOINT Bip01_R_Hand
                {
                  OFFSET 31.2039 0 0
                  CHANNELS 6 Xposition Yposition Zposition Zrotation Xrotation Yrotation
                  JOINT Bip01_R_Finger0
                  {
                    OFFSET 22.1039 0.255862 -0.37902
                    CHANNELS 6 Xposition Yposition Zposition Zrotation Xrotation Yrotation
                    JOINT Bip01_R_Finger0Nub
                    {
                      OFFSET 12.0552 0 0
                      CHANNELS 6 Xposition Yposition Zposition Zrotation Xrotation Yrotation
                      End Site
                      {
                        OFFSET 0 0 0
                      }
                    }
                  }
                }
              }
            }
          }
          JOINT Bip01_L_Clavicle
          {
            OFFSET -17.9452 -11.3132 6.19281
            CHANNELS 6 Xposition Yposition Zposition Zrotation Xrotation Yrotation
            JOINT Bip01_L_UpperArm
            {
              OFFSET 17.444 0 1.14441e-005
              CHANNELS 6 Xposition Yposition Zposition Zrotation Xrotation Yrotation
              JOINT Bip01_L_Forearm
              {
                OFFSET 30.6251 0 0
                CHANNELS 6 Xposition Yposition Zposition Zrotation Xrotation Yrotation
                JOINT Bip01_L_Hand
                {
                  OFFSET 31.204 0 0
                  CHANNELS 6 Xposition Yposition Zposition Zrotation Xrotation Yrotation
                  JOINT Bip01_L_Finger0
                  {
                    OFFSET 22.1039 0.255856 0.379024
                    CHANNELS 6 Xposition Yposition Zposition Zrotation Xrotation Yrotation
                    JOINT Bip01_L_Finger0Nub
                    {
                      OFFSET 12.0552 0 0
                      CHANNELS 6 Xposition Yposition Zposition Zrotation Xrotation Yrotation
                      End Site
                      {
                        OFFSET 0 0 0
                      }
                    }
                  }
                }
              }
            }
          }
          JOINT Bip01_Neck1
          {
            OFFSET 14.9359 -0.0106278 0
            CHANNELS 6 Xposition Yposition Zposition Zrotation Xrotation Yrotation
            JOINT Bip01_Head
            {
              OFFSET 14.3578 0.505501 0
              CHANNELS 6 Xposition Yposition Zposition Zrotation Xrotation Yrotation
              JOINT BN_Ear_L_01
              {
                OFFSET 3.76994 -2.35629 12.3444
                CHANNELS 6 Xposition Yposition Zposition Zrotation Xrotation Yrotation
                End Site
                {
                  OFFSET 0 0 0
                }
              }
              JOINT BN_Ear_R_01
              {
                OFFSET 3.76995 -2.35622 -12.3442
                CHANNELS 6 Xposition Yposition Zposition Zrotation Xrotation Yrotation
                End Site
                {
                  OFFSET 0 0 0
                }
              }
              JOINT BN_Mouth_01
              {
                OFFSET 11.8395 10.8645 1.27e-005
                CHANNELS 6 Xposition Yposition Zposition Zrotation Xrotation Yrotation
                JOINT BN_Tongue_01
                {
                  OFFSET 9.73752 3.21674 1.016e-005
                  CHANNELS 6 Xposition Yposition Zposition Zrotation Xrotation Yrotation
                  JOINT BN_Tongue_02
                  {
                    OFFSET 9.04304 0.053505 0
                    CHANNELS 6 Xposition Yposition Zposition Zrotation Xrotation Yrotation
                    End Site
                    {
                      OFFSET 0 0 0
                    }
                  }
                }
                JOINT BN_Beard_01
                {
                  OFFSET 6.93466 -0.751793 0
                  CHANNELS 6 Xposition Yposition Zposition Zrotation Xrotation Yrotation
                  JOINT BN_Beard_02
                  {
                    OFFSET 13.0965 1.52588e-005 0
                    CHANNELS 6 Xposition Yposition Zposition Zrotation Xrotation Yrotation
                    End Site
                    {
                      OFFSET 0 0 0
                    }
                  }
                }
              }
              JOINT Bip01_HeadNub
              {
                OFFSET 25.6158 0 0
                CHANNELS 6 Xposition Yposition Zposition Zrotation Xrotation Yrotation
                End Site
                {
                  OFFSET 0 0 0
                }
              }
            }
          }
        }
      }
    }
  }
}
MOTION
Frames:	4
Frame Time:	0.0333333
-43.0704 11.4042 1.37519 176.4 -4.99981 -98.7484 -4.76837e-007 0 0 -94.8256 -11.5949 -84.4818 -18.6385 -9.591 1.90735e-006 -21.2188 0.320469 -170.004 20.9744 1.90735e-006 -1.90735e-006 13.0861 -1.02412 -3.64632 20.3015 1.90735e-005 0 2.49017 4.77995 -2.28523 21.6394 3.8147e-006 -3.55271e-015 -12.0226 -2.39458 -2.51394 21.5046 -5.09961 2.01496 -19.3685 17.9261 0.606066 -21.7928 -8.09359 -17.7059 -82.2723 -31.4914 169.166 34.2647 3.55271e-015 -3.8147e-006 -93.7886 -1.47883e-005 2.93828e-005 20.4429 -3.55271e-015 0 57.2666 4.46764e-006 4.89878e-006 16.5673 1.14441e-005 7.6294e-006 -40.3995 5.43543 4.53399 9.18783 6.9484 -3.8147e-006 85.335 55.9538 73.463 1.01906 -4.76837e-007 -7.6294e-006 2.07388e-008 -2.39177e-008 -7.88264e-007 -22.1369 2.43587 14.8362 -83.9752 -8.96392 151.72 34.2647 0 -1.33227e-015 -65.4663 -1.12011e-005 -2.39222e-005 20.4429 -2.86102e-006 2.38419e-007 75.1752 1.10277e-005 -6.72135e-006 16.5673 -7.6294e-006 8.88178e-016 -53.9728 -11.1581 20.9342 9.18785 6.94841 5.72204e-006 124.981 -1.13872 -1.6222 1.01907 1.52588e-005 -1.90735e-006 -179.96 -8.81077e-005 4.31216e-005 39.3451 -0.0175085 -0.0160379 23.9859 39.9574 -2.42271 34.2857 -15.5931 0.00102234 12.6443 -5.04418 -0.0993985 -19.6296 -7.50118 -6.84619 166.268 -42.0278 111.754 17.4439 3.8147e-006 3.8147e-006 110.885 48.8518 -150.233 30.6251 -7.10544e-015 4.76837e-007 -54.5899 9.56719e-006 1.04762e-005 31.204 3.55272e-015 -3.33786e-006 -162.974 85.7594 155.485 22.1039 0.255846 -0.379024 -1.69403 4.10709 -24.5926 12.0552 2.38419e-007 3.55271e-015 179.96 1.67666e-005 1.80367e-005 -19.6082 -8.59052 5.49147 167.365 1.09207 -107.784 17.444 3.8147e-006 -3.55271e-015 -145.042 -57.8936 -98.9088 30.6251 3.8147e-006 -1.14441e-005 -65.2087 -7.29849e-006 -1.57627e-005 31.204 1.90735e-006 7.62939e-006 171.38 -84.0938 155.522 22.1039 0.255852 0.379046 -4.97938 1.99249 4.44995 12.0552 -3.81471e-006 -1.11022e-016 -4.71545e-007 4.93754e-009 1.43631e-008 14.939 -0.00993729 -6.55651e-007 21.2724 -0.779196 16.6825 14.3578 0.505482 -1.77636e-015 -14.0742 27.5992 11.7786 3.76991 -2.35629 12.3443 -171.995 34.2278 -104.904 3.76997 -2.35623 -12.3442 -4.27014 48.7285 101.78 11.8395 10.8646 -1.14441e-005 -175.472 -3.74486 178.891 9.73754 3.21675 -1.90735e-005 -2.85749 1.10439e-005 1.17515e-005 2.5546 -1.10589 -0.153759 4.77834 -2.94618 -1.72235 6.93466 -0.751788 -1.14441e-005 -57.0061 -26.904 -56.2777 13.0966 -1.52588e-005 -1.90735e-006 3.94403 41.2486 -20.906 25.6159 -3.8147e-006 0 8.30067e-007 9.36392e-006 3.11879e-006 
-43.0799 11.7545 1.37519 176.411 -4.9145 -98.7453 -4.76837e-007 0 1.42109e-014 -94.4621 -11.5863 -84.5256 -18.6385 -9.591 1.90021e-006 -21.2413 0.320511 -170.047 20.9744 1.90735e-006 -1.90735e-006 13.1058 -1.0198 -3.38279 20.3015 1.90735e-005 -3.55271e-015 2.75743 4.76523 -2.23503 21.6394 3.8147e-006 0 -11.7455 -2.16508 -2.39611 21.5066 -5.09642 2.00188 -19.3366 17.5475 0.698029 -21.7664 -7.96612 -17.7833 -81.9723 -31.6527 169.609 34.2647 0 -3.8147e-006 -93.6672 -1.46684e-005 2.96317e-005 20.4429 -3.55271e-015 0 57.4915 -2.00096e-006 7.31787e-007 16.5673 1.14441e-005 7.6294e-006 -40.1315 5.27535 4.60492 9.18783 6.9484 -3.81776e-006 85.5425 55.6851 72.9464 1.01906 -4.76837e-007 -7.6294e-006 2.07388e-008 -2.39177e-008 -7.88264e-007 -22.1627 2.34856 14.8269 -84.041 -8.97925 152.077 34.2647 0 4.44089e-016 -65.4809 -1.11604e-005 -2.38906e-005 20.4429 -2.86102e-006 2.38419e-007 75.2442 1.24855e-006 -9.27854e-006 16.5673 -7.6294e-006 8.88178e-016 -53.998 -11.1958 20.6569 9.18785 6.94841 5.71302e-006 124.979 -1.21961 -1.73865 1.01907 1.52588e-005 -1.90735e-006 -179.96 -8.81077e-005 4.31217e-005 39.3449 -0.0175085 -0.0158789 23.9495 39.914 -2.54816 34.2857 -15.5931 0.00102234 12.8093 -4.99046 -0.151592 -19.6589 -7.45099 -6.81679 165.994 -43.3616 111.014 17.4439 3.8147e-006 3.8147e-006 111.543 49.9957 -149.249 30.6251 0 4.76837e-007 -55.0825 9.05316e-006 1.08701e-005 31.204 2.20269e-013 -3.33786e-006 -167.101 85.3726 160.701 22.1039 0.255846 -0.379024 -1.69403 4.10709 -24.5926 12.0552 2.38419e-007 1.77635e-014 179.96 1.67666e-005 1.80367e-005 -19.6263 -8.52908 5.52183 167.229 2.50082 -107.537 17.444 3.8147e-006 2.13163e-014 -143.89 -61.4821 -98.0998 30.6251 3.8147e-006 -1.14441e-005 -72.5882 -1.49857e-005 -1.37447e-005 31.204 1.90735e-006 7.62939e-006 -175.455 -84.8629 162.909 22.1039 0.255853 0.379046 -4.81596 2.09555 4.60045 12.0552 -3.81471e-006 6.66132e-015 -4.71545e-007 4.93754e-009 1.43631e-008 14.939 -0.00993729 -6.5565e-007 21.0941 -0.83624 16.0036 14.3578 0.505482 1.55211e-009 -13.5134 26.6468 11.1135 3.76991 -2.35629 12.3443 -171.991 34.1358 -105.594 3.76997 -2.35623 -12.3442 -4.70612 49.1055 101.509 11.8395 10.8646 -1.1446e-005 -175.525 -3.77114 178.888 9.73754 3.21675 -1.90682e-005 -2.85749 1.0992e-005 1.17562e-005 2.5546 -1.10589 -0.153759 4.77834 -2.94618 -1.72235 6.93466 -0.751788 -1.14453e-005 -56.3228 -25.3689 -55.7297 13.0966 -1.52588e-005 -1.90735e-006 4.04328 41.5445 -20.5457 25.6159 -3.8147e-006 1.42109e-014 8.30067e-007 9.36392e-006 3.11879e-006 
-43.0891 12.2061 1.37519 176.433 -4.68372 -98.7332 -4.76837e-007 0 0 -94.1222 -11.5526 -84.6148 -18.6385 -9.591 1.89325e-006 -21.3071 0.320629 -170.168 20.9744 1.90735e-006 -1.90735e-006 13.1622 -1.01496 -2.69255 20.3015 1.90735e-005 7.10543e-015 3.46199 4.72492 -2.10394 21.6394 3.8147e-006 -1.06581e-014 -10.8324 -1.43144 -1.968 21.5123 -5.08425 1.97268 -19.1965 17.1632 1.00158 -21.6778 -7.80041 -17.9364 -81.5611 -31.7445 170.284 34.2647 7.10543e-015 -3.8147e-006 -93.2882 -1.44066e-005 2.98756e-005 20.4429 0 1.42109e-014 57.6574 -2.36476e-006 5.04625e-007 16.5673 1.14441e-005 7.6294e-006 -39.8982 5.06716 4.6034 9.18783 6.9484 -3.82037e-006 85.7404 55.4206 72.4449 1.01906 -4.76837e-007 -7.6294e-006 2.07388e-008 -2.39177e-008 -7.88264e-007 -22.2488 2.29395 14.7401 -84.2201 -8.8494 152.639 34.2647 0 2.88658e-014 -65.6951 -1.02179e-005 -2.41602e-005 20.4429 -2.86102e-006 2.38419e-007 75.5287 1.14628e-006 -9.32225e-006 16.5673 -7.6294e-006 8.88178e-016 -54.073 -11.222 20.283 9.18785 6.94841 5.70575e-006 124.976 -1.29891 -1.85284 1.01907 1.52588e-005 -1.90735e-006 -179.96 -8.81077e-005 4.31217e-005 39.3447 -0.0175085 -0.0157204 23.8395 39.7903 -2.88658 34.2857 -15.5931 0.00102234 12.9984 -4.93194 -0.209355 -19.6923 -7.39329 -6.783 165.663 -45.2305 109.989 17.4439 3.8147e-006 3.8147e-006 112.402 51.5939 -147.912 30.6251 7.10544e-015 4.76837e-007 -55.4969 1.23541e-006 1.63088e-005 31.204 0 -3.33786e-006 -171.685 84.7665 166.628 22.1039 0.255846 -0.379024 -1.69403 4.10708 -24.5926 12.0552 2.38419e-007 2.13162e-014 179.96 1.67665e-005 1.80366e-005 -19.6469 -8.45849 5.5567 167.087 4.4364 -107.178 17.444 3.8147e-006 -2.13163e-014 -141.744 -65.8902 -96.4157 30.6251 3.8147e-006 -1.14441e-005 -81.6849 -1.34741e-005 -1.59225e-005 31.204 1.90735e-006 7.62939e-006 -152.953 -85.8863 177.883 22.1039 0.255853 0.379046 -4.5905 2.24191 4.81008 12.0552 -3.81471e-006 7.10541e-015 -4.71545e-007 4.93754e-009 1.43631e-008 14.939 -0.00993729 -6.5565e-007 20.8879 -0.897598 15.205 14.3578 0.505482 3.222e-009 -12.706 25.539 10.3262 3.76991 -2.35629 12.3443 -171.988 34.0454 -106.271 3.76997 -2.35623 -12.3442 -5.13416 49.4765 101.246 11.8395 10.8646 -1.14525e-005 -175.578 -3.79689 178.885 9.73754 3.21675 -1.90639e-005 -2.85749 1.09339e-005 1.176e-005 2.5546 -1.10589 -0.153759 4.77834 -2.94618 -1.72236 6.93466 -0.751788 -1.14463e-005 -55.5663 -23.342 -54.7997 13.0966 -1.52588e-005 -1.90735e-006 4.30249 42.3434 -19.5453 25.6159 -3.8147e-006 -3.55271e-014 8.30067e-007 9.36393e-006 3.11879e-006 
-43.0983 12.7577 1.37519 176.473 -4.33023 -98.7173 -4.76837e-007 0 0 -93.7845 -11.4963 -84.7442 -18.6385 -9.591 1.8861e-006 -21.419 0.320802 -170.363 20.9744 1.90735e-006 -1.90735e-006 13.2501 -1.00673 -1.66468 20.3015 1.90735e-005 1.06581e-014 4.5058 4.66338 -1.87895 21.6394 3.8147e-006 3.55271e-015 -9.91613 -0.683701 -1.54776 21.5213 -5.06349 1.9284 -18.9537 16.7561 1.50887 -21.5288 -7.59518 -18.1605 -81.0402 -31.7625 171.17 34.2647 -7.10543e-015 -3.8147e-006 -92.6787 -1.4005e-005 3.0011e-005 20.4429 -3.55271e-015 2.13163e-014 57.7772 -2.99649e-006 1.21061e-007 16.5673 1.14441e-005 7.6294e-006 -39.698 4.78866 4.52606 9.18783 6.9484 -3.82293e-006 85.9348 55.1525 71.9434 1.01906 -4.76837e-007 -7.6294e-006 2.07388e-008 -2.39177e-008 -7.88264e-007 -22.3904 2.26679 14.5805 -84.4966 -8.58777 153.392 34.2647 0 8.88178e-016 -66.0743 -1.08515e-005 -2.36172e-005 20.4429 -2.86102e-006 2.38419e-007 75.9806 1.04706e-006 -9.40395e-006 16.5673 -7.6294e-006 8.88178e-016 -54.1921 -11.2373 19.8135 9.18785 6.94841 5.69865e-006 124.973 -1.379 -1.96817 1.01907 1.52588e-005 -1.90735e-006 -179.96 -8.81077e-005 4.31218e-005 39.3445 -0.0175085 -0.015563 23.6608 39.5889 -3.42929 34.2857 -15.5931 0.00102234 13.2173 -4.8639 -0.278316 -19.7303 -7.32693 -6.74423 165.253 -47.6025 108.69 17.4439 3.8147e-006 3.8147e-006 113.516 53.611 -146.312 30.6251 7.10544e-015 4.76837e-007 -55.7578 1.24407e-006 1.63347e-005 31.204 0 -3.33786e-006 -176.019 83.9189 172.493 22.1039 0.255846 -0.379024 -1.69403 4.10707 -24.5926 12.0552 2.38419e-007 2.84217e-014 179.96 1.67663e-005 1.80365e-005 -19.6702 -8.37743 5.59667 166.946 6.86698 -106.725 17.444 3.8147e-006 -4.26326e-014 -137.884 -70.6967 -93.059 30.6251 3.8147e-006 -1.14441e-005 -91.7405 -1.38905e-006 -1.75778e-005 31.2039 1.90735e-006 7.62939e-006 -111.422 -86.5598 -149.414 22.1039 0.255853 0.379046 -4.30318 2.42615 5.07734 12.0552 -3.81471e-006 -7.10541e-015 -4.71545e-007 4.93754e-009 1.43631e-008 14.939 -0.00993729 -6.55652e-007 20.6515 -0.961924 14.2702 14.3578 0.505482 5.11687e-009 -11.6538 24.2651 9.41609 3.76991 -2.35629 12.3443 -171.986 33.9542 -106.953 3.76997 -2.35623 -12.3442 -5.56703 49.8524 100.982 11.8395 10.8646 -1.14627e-005 -175.631 -3.8229 178.882 9.73754 3.21675 -1.90603e-005 -2.85749 1.08685e-005 1.17632e-005 2.5546 -1.10589 -0.153759 4.77834 -2.94618 -1.72236 6.93466 -0.751788 -1.14472e-005 -54.7453 -20.8254 -53.5047 13.0966 -1.52588e-005 -1.90735e-006 4.64328 43.6103 -17.9039 25.6159 -3.8147e-006 -7.10543e-015 8.30067e-007 9.36393e-006 3.11879e-006 
